{"asset":{"generator":"Khronos glTF Blender I/O v1.7.33","version":"2.0"},"scene":0,"scenes":[{"name":"Scene","nodes":[2]}],"nodes":[{"mesh":0,"name":"FLTire","scale":[0.6906360387802124,0.6906360387802124,0.6906360387802124],"translation":[0.00007528231071773916,-0.000014648982869402971,0.000008072419404925313]},{"mesh":1,"name":"FLwheel","scale":[0.6906360387802124,0.6906360387802124,0.6906360387802124],"translation":[0.00006682447565253824,-0.000004348750280769309,0.000009180585948342923]},{"children":[0,1],"name":"Null.001","rotation":[0,0.7071067094802856,-0.7071068286895752,-3.0908616110991716e-8],"scale":[500,500,500]}],"materials":[{"doubleSided":true,"name":"tires.001","pbrMetallicRoughness":{"baseColorTexture":{"index":0},"roughnessFactor":0.5527864098548889}},{"doubleSided":true,"name":"parts.001","pbrMetallicRoughness":{"baseColorTexture":{"index":1},"roughnessFactor":0.2928932309150696}}],"meshes":[{"name":"3DSMesh_14_2-mesh.001","primitives":[{"attributes":{"POSITION":0,"NORMAL":1,"TEXCOORD_0":2},"indices":3,"material":0}]},{"name":"3DSMesh_13_2-mesh.001","primitives":[{"attributes":{"POSITION":4,"NORMAL":5,"TEXCOORD_0":6},"indices":7,"material":1}]}],"textures":[{"sampler":0,"source":0},{"sampler":0,"source":1}],"images":[{"bufferView":4,"mimeType":"image/jpeg","name":"tires_bump"},{"bufferView":9,"mimeType":"image/jpeg","name":"parts2"}],"accessors":[{"bufferView":0,"componentType":5126,"count":360,"max":[0.0005256358999758959,0.001411294098943472,0.0014184353640303016],"min":[-0.00047063431702554226,-0.0014114957302808762,-0.001418762025423348],"type":"VEC3"},{"bufferView":1,"componentType":5126,"count":360,"type":"VEC3"},{"bufferView":2,"componentType":5126,"count":360,"type":"VEC2"},{"bufferView":3,"componentType":5123,"count":1980,"type":"SCALAR"},{"bufferView":5,"componentType":5126,"count":986,"max":[0.0005019828677177429,0.0009228899143636227,0.0009408642072230577],"min":[-0.00041913706809282303,-0.000952400267124176,-0.0009436068357899785],"type":"VEC3"},{"bufferView":6,"componentType":5126,"count":986,"type":"VEC3"},{"bufferView":7,"componentType":5126,"count":986,"type":"VEC2"},{"bufferView":8,"componentType":5123,"count":4809,"type":"SCALAR"}],"bufferViews":[{"buffer":0,"byteLength":4320,"byteOffset":0},{"buffer":0,"byteLength":4320,"byteOffset":4320},{"buffer":0,"byteLength":2880,"byteOffset":8640},{"buffer":0,"byteLength":3960,"byteOffset":11520},{"buffer":0,"byteLength":45478,"byteOffset":15480},{"buffer":0,"byteLength":11832,"byteOffset":60960},{"buffer":0,"byteLength":11832,"byteOffset":72792},{"buffer":0,"byteLength":7888,"byteOffset":84624},{"buffer":0,"byteLength":9618,"byteOffset":92512},{"buffer":0,"byteLength":430088,"byteOffset":102132}],"samplers":[{"magFilter":9729,"minFilter":9987}],"buffers":[{"byteLength":532220,"uri":"data:application/octet-stream;base64,"}]}